<svg width="22" height="20" viewBox="0 0 22 20" fill="none" xmlns="http://www.w3.org/2000/svg">
<g clip-path="url(#clip0_830_398)">
<path d="M16.445 14.9499C14.878 16.0358 12.97 16.6373 11 16.6666C4.58329 16.6666 0.916626 9.99994 0.916626 9.99994C2.05686 8.06819 3.63833 6.38045 5.55496 5.04994M9.07496 3.53327C9.70593 3.39901 10.3519 3.33189 11 3.33327C17.4166 3.33327 21.0833 9.99994 21.0833 9.99994C20.5269 10.9463 19.8633 11.8372 19.1033 12.6583M12.9433 11.7666C12.6915 12.0122 12.3879 12.2092 12.0506 12.3459C11.7133 12.4825 11.3491 12.556 10.9799 12.5619C10.6106 12.5678 10.2439 12.5061 9.90144 12.3803C9.55901 12.2546 9.24795 12.0675 8.98682 11.8301C8.72568 11.5927 8.51982 11.3099 8.38151 10.9986C8.2432 10.6873 8.17528 10.3539 8.18179 10.0182C8.18831 9.68252 8.26913 9.35148 8.41943 9.04481C8.56973 8.73815 8.78644 8.46215 9.05663 8.23327" stroke="#A0A0A0" stroke-width="1.5" stroke-linecap="round" stroke-linejoin="round"/>
<path d="M0.916626 0.833374L21.0833 19.1667" stroke="#A0A0A0" stroke-width="1.5" stroke-linecap="round" stroke-linejoin="round"/>
</g>
<defs>
<clipPath id="clip0_830_398">
<rect width="22" height="20" fill="white"/>
</clipPath>
</defs>
</svg>
